<mxfile host="app.diagrams.net" agent="Mozilla/5.0 (Windows NT 10.0; Win64; x64) AppleWebKit/537.36 (KHTML, like Gecko) Chrome/128.0.0.0 Safari/537.36 OPR/114.0.0.0" version="25.0.1">
  <diagram id="C5RBs43oDa-KdzZeNtuy" name="Page-1">
    <mxGraphModel dx="1001" dy="733" grid="1" gridSize="10" guides="1" tooltips="1" connect="1" arrows="1" fold="1" page="1" pageScale="1" pageWidth="827" pageHeight="1169" math="0" shadow="0">
      <root>
        <mxCell id="WIyWlLk6GJQsqaUBKTNV-0" />
        <mxCell id="WIyWlLk6GJQsqaUBKTNV-1" parent="WIyWlLk6GJQsqaUBKTNV-0" />
        <mxCell id="WIyWlLk6GJQsqaUBKTNV-2" value="" style="rounded=0;html=1;jettySize=auto;orthogonalLoop=1;fontSize=11;endArrow=block;endFill=0;endSize=8;strokeWidth=1;shadow=0;labelBackgroundColor=none;edgeStyle=orthogonalEdgeStyle;exitX=0.5;exitY=1;exitDx=0;exitDy=0;" parent="WIyWlLk6GJQsqaUBKTNV-1" source="nmM_pcnVhzWw3TYfgnPR-0" edge="1">
          <mxGeometry relative="1" as="geometry">
            <mxPoint x="369.77" y="80" as="sourcePoint" />
            <mxPoint x="369.77" y="130" as="targetPoint" />
          </mxGeometry>
        </mxCell>
        <mxCell id="WIyWlLk6GJQsqaUBKTNV-4" value="" style="rounded=0;html=1;jettySize=auto;orthogonalLoop=1;fontSize=11;endArrow=block;endFill=0;endSize=8;strokeWidth=1;shadow=0;labelBackgroundColor=none;edgeStyle=orthogonalEdgeStyle;" parent="WIyWlLk6GJQsqaUBKTNV-1" source="nmM_pcnVhzWw3TYfgnPR-1" target="WIyWlLk6GJQsqaUBKTNV-10" edge="1">
          <mxGeometry y="20" relative="1" as="geometry">
            <mxPoint as="offset" />
            <mxPoint x="370" y="199.9999999999999" as="sourcePoint" />
          </mxGeometry>
        </mxCell>
        <mxCell id="WIyWlLk6GJQsqaUBKTNV-5" value="No" style="edgeStyle=orthogonalEdgeStyle;rounded=0;html=1;jettySize=auto;orthogonalLoop=1;fontSize=11;endArrow=block;endFill=0;endSize=8;strokeWidth=1;shadow=0;labelBackgroundColor=none;" parent="WIyWlLk6GJQsqaUBKTNV-1" target="WIyWlLk6GJQsqaUBKTNV-7" edge="1">
          <mxGeometry y="10" relative="1" as="geometry">
            <mxPoint as="offset" />
            <mxPoint x="420" y="160" as="sourcePoint" />
          </mxGeometry>
        </mxCell>
        <mxCell id="WIyWlLk6GJQsqaUBKTNV-7" value="Plug in lamp" style="rounded=1;whiteSpace=wrap;html=1;fontSize=12;glass=0;strokeWidth=1;shadow=0;" parent="WIyWlLk6GJQsqaUBKTNV-1" vertex="1">
          <mxGeometry x="470" y="140" width="120" height="40" as="geometry" />
        </mxCell>
        <mxCell id="WIyWlLk6GJQsqaUBKTNV-8" value="False" style="rounded=0;html=1;jettySize=auto;orthogonalLoop=1;fontSize=11;endArrow=block;endFill=0;endSize=8;strokeWidth=1;shadow=0;labelBackgroundColor=none;edgeStyle=orthogonalEdgeStyle;" parent="WIyWlLk6GJQsqaUBKTNV-1" edge="1">
          <mxGeometry x="0.3333" y="20" relative="1" as="geometry">
            <mxPoint as="offset" />
            <mxPoint x="201.25" y="264.85999999999996" as="sourcePoint" />
            <mxPoint x="250" y="264.85999999999996" as="targetPoint" />
            <Array as="points">
              <mxPoint x="250" y="264.85999999999996" />
            </Array>
          </mxGeometry>
        </mxCell>
        <mxCell id="WIyWlLk6GJQsqaUBKTNV-10" value="Case 1" style="rhombus;whiteSpace=wrap;html=1;shadow=0;fontFamily=Helvetica;fontSize=12;align=center;strokeWidth=1;spacing=6;spacingTop=-4;" parent="WIyWlLk6GJQsqaUBKTNV-1" vertex="1">
          <mxGeometry x="138.75" y="240" width="62.5" height="50" as="geometry" />
        </mxCell>
        <mxCell id="nmM_pcnVhzWw3TYfgnPR-0" value="&lt;font style=&quot;font-size: 15px;&quot;&gt;Start&lt;/font&gt;" style="ellipse;whiteSpace=wrap;html=1;" vertex="1" parent="WIyWlLk6GJQsqaUBKTNV-1">
          <mxGeometry x="320" width="100" height="70" as="geometry" />
        </mxCell>
        <mxCell id="nmM_pcnVhzWw3TYfgnPR-1" value="Input choice" style="shape=parallelogram;perimeter=parallelogramPerimeter;whiteSpace=wrap;html=1;fixedSize=1;" vertex="1" parent="WIyWlLk6GJQsqaUBKTNV-1">
          <mxGeometry x="310" y="130" width="120" height="60" as="geometry" />
        </mxCell>
        <mxCell id="nmM_pcnVhzWw3TYfgnPR-4" value="Input fname" style="shape=parallelogram;perimeter=parallelogramPerimeter;whiteSpace=wrap;html=1;fixedSize=1;" vertex="1" parent="WIyWlLk6GJQsqaUBKTNV-1">
          <mxGeometry x="120" y="360" width="100" height="50" as="geometry" />
        </mxCell>
        <mxCell id="nmM_pcnVhzWw3TYfgnPR-9" value="&lt;font style=&quot;font-size: 10px;&quot;&gt;Create Profile&lt;/font&gt;" style="rounded=0;html=1;jettySize=auto;orthogonalLoop=1;fontSize=11;endArrow=block;endFill=0;endSize=8;strokeWidth=1;shadow=0;labelBackgroundColor=none;edgeStyle=orthogonalEdgeStyle;exitX=0.477;exitY=1.017;exitDx=0;exitDy=0;exitPerimeter=0;entryX=0.5;entryY=0;entryDx=0;entryDy=0;" edge="1" parent="WIyWlLk6GJQsqaUBKTNV-1" source="WIyWlLk6GJQsqaUBKTNV-10" target="nmM_pcnVhzWw3TYfgnPR-4">
          <mxGeometry x="0.0838" y="50" relative="1" as="geometry">
            <mxPoint as="offset" />
            <mxPoint x="140" y="330" as="sourcePoint" />
            <mxPoint x="260" y="330" as="targetPoint" />
            <Array as="points">
              <mxPoint x="169" y="310" />
              <mxPoint x="170" y="310" />
            </Array>
          </mxGeometry>
        </mxCell>
        <mxCell id="nmM_pcnVhzWw3TYfgnPR-10" value="Input lname" style="shape=parallelogram;perimeter=parallelogramPerimeter;whiteSpace=wrap;html=1;fixedSize=1;" vertex="1" parent="WIyWlLk6GJQsqaUBKTNV-1">
          <mxGeometry x="120" y="450" width="100" height="50" as="geometry" />
        </mxCell>
        <mxCell id="nmM_pcnVhzWw3TYfgnPR-11" value="Input age" style="shape=parallelogram;perimeter=parallelogramPerimeter;whiteSpace=wrap;html=1;fixedSize=1;" vertex="1" parent="WIyWlLk6GJQsqaUBKTNV-1">
          <mxGeometry x="110" y="540" width="100" height="50" as="geometry" />
        </mxCell>
        <mxCell id="nmM_pcnVhzWw3TYfgnPR-13" value="" style="rounded=0;html=1;jettySize=auto;orthogonalLoop=1;fontSize=11;endArrow=block;endFill=0;endSize=8;strokeWidth=1;shadow=0;labelBackgroundColor=none;edgeStyle=orthogonalEdgeStyle;exitX=0.477;exitY=1.017;exitDx=0;exitDy=0;exitPerimeter=0;" edge="1" parent="WIyWlLk6GJQsqaUBKTNV-1">
          <mxGeometry x="0.0838" y="50" relative="1" as="geometry">
            <mxPoint as="offset" />
            <mxPoint x="179" y="411" as="sourcePoint" />
            <mxPoint x="181" y="440" as="targetPoint" />
            <Array as="points">
              <mxPoint x="179" y="410" />
              <mxPoint x="181" y="410" />
            </Array>
          </mxGeometry>
        </mxCell>
        <mxCell id="nmM_pcnVhzWw3TYfgnPR-14" value="" style="rounded=0;html=1;jettySize=auto;orthogonalLoop=1;fontSize=11;endArrow=block;endFill=0;endSize=8;strokeWidth=1;shadow=0;labelBackgroundColor=none;edgeStyle=orthogonalEdgeStyle;exitX=0.5;exitY=1;exitDx=0;exitDy=0;entryX=0.5;entryY=0;entryDx=0;entryDy=0;" edge="1" parent="WIyWlLk6GJQsqaUBKTNV-1">
          <mxGeometry x="0.0838" y="50" relative="1" as="geometry">
            <mxPoint as="offset" />
            <mxPoint x="164.5" y="500" as="sourcePoint" />
            <mxPoint x="175.5" y="530" as="targetPoint" />
            <Array as="points">
              <mxPoint x="175.5" y="500" />
            </Array>
          </mxGeometry>
        </mxCell>
        <mxCell id="nmM_pcnVhzWw3TYfgnPR-15" value="Input gender" style="shape=parallelogram;perimeter=parallelogramPerimeter;whiteSpace=wrap;html=1;fixedSize=1;" vertex="1" parent="WIyWlLk6GJQsqaUBKTNV-1">
          <mxGeometry x="120" y="620" width="100" height="50" as="geometry" />
        </mxCell>
        <mxCell id="nmM_pcnVhzWw3TYfgnPR-16" value="" style="rounded=0;html=1;jettySize=auto;orthogonalLoop=1;fontSize=11;endArrow=block;endFill=0;endSize=8;strokeWidth=1;shadow=0;labelBackgroundColor=none;edgeStyle=orthogonalEdgeStyle;exitX=0.5;exitY=1;exitDx=0;exitDy=0;entryX=0.5;entryY=0;entryDx=0;entryDy=0;" edge="1" parent="WIyWlLk6GJQsqaUBKTNV-1">
          <mxGeometry x="0.0838" y="50" relative="1" as="geometry">
            <mxPoint as="offset" />
            <mxPoint x="174.5" y="590" as="sourcePoint" />
            <mxPoint x="185.5" y="620" as="targetPoint" />
            <Array as="points">
              <mxPoint x="185.5" y="590" />
            </Array>
          </mxGeometry>
        </mxCell>
        <mxCell id="nmM_pcnVhzWw3TYfgnPR-19" value="Is gender = m?" style="rhombus;whiteSpace=wrap;html=1;" vertex="1" parent="WIyWlLk6GJQsqaUBKTNV-1">
          <mxGeometry x="130" y="720" width="80" height="80" as="geometry" />
        </mxCell>
        <mxCell id="nmM_pcnVhzWw3TYfgnPR-24" value="" style="rounded=0;html=1;jettySize=auto;orthogonalLoop=1;fontSize=11;endArrow=block;endFill=0;endSize=8;strokeWidth=1;shadow=0;labelBackgroundColor=none;edgeStyle=orthogonalEdgeStyle;exitX=0.5;exitY=1;exitDx=0;exitDy=0;entryX=0.5;entryY=0;entryDx=0;entryDy=0;" edge="1" parent="WIyWlLk6GJQsqaUBKTNV-1" source="nmM_pcnVhzWw3TYfgnPR-15" target="nmM_pcnVhzWw3TYfgnPR-19">
          <mxGeometry x="0.0838" y="50" relative="1" as="geometry">
            <mxPoint as="offset" />
            <mxPoint x="184.5" y="669.9999999999998" as="sourcePoint" />
            <mxPoint x="175.5" y="710" as="targetPoint" />
            <Array as="points">
              <mxPoint x="170" y="700" />
              <mxPoint x="170" y="700" />
            </Array>
          </mxGeometry>
        </mxCell>
        <mxCell id="nmM_pcnVhzWw3TYfgnPR-26" value="Yes" style="rounded=0;html=1;jettySize=auto;orthogonalLoop=1;fontSize=11;endArrow=block;endFill=0;endSize=8;strokeWidth=1;shadow=0;labelBackgroundColor=none;edgeStyle=orthogonalEdgeStyle;exitX=1;exitY=0.5;exitDx=0;exitDy=0;" edge="1" parent="WIyWlLk6GJQsqaUBKTNV-1" source="nmM_pcnVhzWw3TYfgnPR-19">
          <mxGeometry x="-0.4444" y="10" relative="1" as="geometry">
            <mxPoint as="offset" />
            <mxPoint x="240" y="761" as="sourcePoint" />
            <mxPoint x="250" y="760" as="targetPoint" />
            <Array as="points">
              <mxPoint x="242" y="760" />
            </Array>
          </mxGeometry>
        </mxCell>
        <mxCell id="nmM_pcnVhzWw3TYfgnPR-27" value="No" style="rounded=0;html=1;jettySize=auto;orthogonalLoop=1;fontSize=11;endArrow=block;endFill=0;endSize=8;strokeWidth=1;shadow=0;labelBackgroundColor=none;edgeStyle=orthogonalEdgeStyle;exitX=0.5;exitY=1;exitDx=0;exitDy=0;" edge="1" parent="WIyWlLk6GJQsqaUBKTNV-1" source="nmM_pcnVhzWw3TYfgnPR-19">
          <mxGeometry y="20" relative="1" as="geometry">
            <mxPoint as="offset" />
            <mxPoint x="169" y="811" as="sourcePoint" />
            <mxPoint x="170" y="830" as="targetPoint" />
            <Array as="points">
              <mxPoint x="170" y="820" />
              <mxPoint x="170" y="820" />
            </Array>
          </mxGeometry>
        </mxCell>
        <mxCell id="nmM_pcnVhzWw3TYfgnPR-34" value="Is gender&amp;nbsp;&lt;div&gt;= f?&lt;/div&gt;" style="rhombus;whiteSpace=wrap;html=1;" vertex="1" parent="WIyWlLk6GJQsqaUBKTNV-1">
          <mxGeometry x="130" y="830" width="80" height="80" as="geometry" />
        </mxCell>
        <mxCell id="nmM_pcnVhzWw3TYfgnPR-35" value="Yes" style="rounded=0;html=1;jettySize=auto;orthogonalLoop=1;fontSize=11;endArrow=block;endFill=0;endSize=8;strokeWidth=1;shadow=0;labelBackgroundColor=none;edgeStyle=orthogonalEdgeStyle;exitX=1;exitY=0.5;exitDx=0;exitDy=0;" edge="1" parent="WIyWlLk6GJQsqaUBKTNV-1" source="nmM_pcnVhzWw3TYfgnPR-34">
          <mxGeometry x="-0.4444" y="10" relative="1" as="geometry">
            <mxPoint as="offset" />
            <mxPoint x="240" y="871" as="sourcePoint" />
            <mxPoint x="250" y="870" as="targetPoint" />
            <Array as="points">
              <mxPoint x="242" y="870" />
            </Array>
          </mxGeometry>
        </mxCell>
        <mxCell id="nmM_pcnVhzWw3TYfgnPR-36" value="No" style="rounded=0;html=1;jettySize=auto;orthogonalLoop=1;fontSize=11;endArrow=block;endFill=0;endSize=8;strokeWidth=1;shadow=0;labelBackgroundColor=none;edgeStyle=orthogonalEdgeStyle;exitX=0.5;exitY=1;exitDx=0;exitDy=0;" edge="1" parent="WIyWlLk6GJQsqaUBKTNV-1" source="nmM_pcnVhzWw3TYfgnPR-34">
          <mxGeometry y="20" relative="1" as="geometry">
            <mxPoint as="offset" />
            <mxPoint x="169" y="921" as="sourcePoint" />
            <mxPoint x="170" y="940" as="targetPoint" />
            <Array as="points">
              <mxPoint x="170" y="930" />
              <mxPoint x="170" y="930" />
            </Array>
          </mxGeometry>
        </mxCell>
        <mxCell id="nmM_pcnVhzWw3TYfgnPR-37" value="Print &quot;M or F only&quot;" style="rounded=0;whiteSpace=wrap;html=1;" vertex="1" parent="WIyWlLk6GJQsqaUBKTNV-1">
          <mxGeometry x="120" y="940" width="100" height="50" as="geometry" />
        </mxCell>
        <mxCell id="nmM_pcnVhzWw3TYfgnPR-38" value="" style="rounded=0;html=1;jettySize=auto;orthogonalLoop=1;fontSize=11;endArrow=block;endFill=0;endSize=8;strokeWidth=1;shadow=0;labelBackgroundColor=none;edgeStyle=orthogonalEdgeStyle;exitX=-0.027;exitY=0.713;exitDx=0;exitDy=0;entryX=0.054;entryY=0.658;entryDx=0;entryDy=0;exitPerimeter=0;entryPerimeter=0;" edge="1" parent="WIyWlLk6GJQsqaUBKTNV-1" source="nmM_pcnVhzWw3TYfgnPR-37" target="nmM_pcnVhzWw3TYfgnPR-15">
          <mxGeometry x="0.0851" y="50" relative="1" as="geometry">
            <mxPoint as="offset" />
            <mxPoint x="110" y="977.5" as="sourcePoint" />
            <mxPoint x="120" y="652.5" as="targetPoint" />
            <Array as="points">
              <mxPoint x="110" y="976" />
              <mxPoint x="110" y="653" />
            </Array>
          </mxGeometry>
        </mxCell>
        <mxCell id="nmM_pcnVhzWw3TYfgnPR-39" value="gender = &quot;Male&quot;" style="rounded=0;whiteSpace=wrap;html=1;" vertex="1" parent="WIyWlLk6GJQsqaUBKTNV-1">
          <mxGeometry x="250" y="740" width="90" height="45" as="geometry" />
        </mxCell>
        <mxCell id="nmM_pcnVhzWw3TYfgnPR-40" value="gender = &quot;Female" style="rounded=0;whiteSpace=wrap;html=1;" vertex="1" parent="WIyWlLk6GJQsqaUBKTNV-1">
          <mxGeometry x="250" y="850" width="90" height="45" as="geometry" />
        </mxCell>
        <mxCell id="nmM_pcnVhzWw3TYfgnPR-45" value="" style="shape=partialRectangle;whiteSpace=wrap;html=1;bottom=1;right=1;left=1;top=0;fillColor=none;routingCenterX=-0.5;rotation=-90;" vertex="1" parent="WIyWlLk6GJQsqaUBKTNV-1">
          <mxGeometry x="297.5" y="807.5" width="120" height="15" as="geometry" />
        </mxCell>
        <mxCell id="nmM_pcnVhzWw3TYfgnPR-46" value="" style="rounded=0;html=1;jettySize=auto;orthogonalLoop=1;fontSize=11;endArrow=block;endFill=0;endSize=8;strokeWidth=1;shadow=0;labelBackgroundColor=none;edgeStyle=orthogonalEdgeStyle;exitX=0.5;exitY=1;exitDx=0;exitDy=0;" edge="1" parent="WIyWlLk6GJQsqaUBKTNV-1" source="nmM_pcnVhzWw3TYfgnPR-45">
          <mxGeometry x="-0.4444" y="10" relative="1" as="geometry">
            <mxPoint as="offset" />
            <mxPoint x="370" y="814.76" as="sourcePoint" />
            <mxPoint x="410" y="814.76" as="targetPoint" />
            <Array as="points">
              <mxPoint x="402" y="815" />
            </Array>
          </mxGeometry>
        </mxCell>
        <mxCell id="nmM_pcnVhzWw3TYfgnPR-48" value="&lt;font style=&quot;font-size: 10px;&quot;&gt;Output&lt;/font&gt;&lt;div&gt;&lt;font style=&quot;font-size: 10px;&quot;&gt;fname&lt;/font&gt;&lt;/div&gt;&lt;div&gt;&lt;font style=&quot;font-size: 10px;&quot;&gt;lname&lt;/font&gt;&lt;/div&gt;&lt;div&gt;&lt;font style=&quot;font-size: 10px;&quot;&gt;age&lt;/font&gt;&lt;/div&gt;&lt;div&gt;&lt;font style=&quot;font-size: 10px;&quot;&gt;gender&lt;/font&gt;&lt;/div&gt;" style="shape=parallelogram;perimeter=parallelogramPerimeter;whiteSpace=wrap;html=1;fixedSize=1;" vertex="1" parent="WIyWlLk6GJQsqaUBKTNV-1">
          <mxGeometry x="400" y="780" width="100" height="70" as="geometry" />
        </mxCell>
        <mxCell id="nmM_pcnVhzWw3TYfgnPR-49" value="&lt;font style=&quot;font-size: 10px;&quot;&gt;nameList.add&lt;/font&gt;&lt;div&gt;&lt;font style=&quot;font-size: 10px;&quot;&gt;ageList.add&lt;/font&gt;&lt;/div&gt;&lt;div&gt;&lt;font style=&quot;font-size: 10px;&quot;&gt;genderList.add&lt;/font&gt;&lt;/div&gt;" style="rounded=0;whiteSpace=wrap;html=1;" vertex="1" parent="WIyWlLk6GJQsqaUBKTNV-1">
          <mxGeometry x="510" y="790" width="100" height="50" as="geometry" />
        </mxCell>
        <mxCell id="nmM_pcnVhzWw3TYfgnPR-50" value="" style="rounded=0;html=1;jettySize=auto;orthogonalLoop=1;fontSize=11;endArrow=block;endFill=0;endSize=8;strokeWidth=1;shadow=0;labelBackgroundColor=none;edgeStyle=orthogonalEdgeStyle;exitX=0.5;exitY=1;exitDx=0;exitDy=0;" edge="1" parent="WIyWlLk6GJQsqaUBKTNV-1">
          <mxGeometry x="-0.4444" y="10" relative="1" as="geometry">
            <mxPoint as="offset" />
            <mxPoint x="490" y="815.05" as="sourcePoint" />
            <mxPoint x="510" y="815" as="targetPoint" />
            <Array as="points">
              <mxPoint x="500" y="815" />
            </Array>
          </mxGeometry>
        </mxCell>
        <mxCell id="nmM_pcnVhzWw3TYfgnPR-51" value="" style="rounded=0;html=1;jettySize=auto;orthogonalLoop=1;fontSize=11;endArrow=block;endFill=0;endSize=8;strokeWidth=1;shadow=0;labelBackgroundColor=none;edgeStyle=orthogonalEdgeStyle;exitX=1;exitY=0.5;exitDx=0;exitDy=0;" edge="1" parent="WIyWlLk6GJQsqaUBKTNV-1" source="nmM_pcnVhzWw3TYfgnPR-49">
          <mxGeometry x="0.0851" y="50" relative="1" as="geometry">
            <mxPoint as="offset" />
            <mxPoint x="728" y="990" as="sourcePoint" />
            <mxPoint x="110" y="1040" as="targetPoint" />
            <Array as="points">
              <mxPoint x="630" y="815" />
              <mxPoint x="630" y="1040" />
            </Array>
          </mxGeometry>
        </mxCell>
        <mxCell id="nmM_pcnVhzWw3TYfgnPR-52" value="" style="endArrow=none;html=1;rounded=0;" edge="1" parent="WIyWlLk6GJQsqaUBKTNV-1">
          <mxGeometry width="50" height="50" relative="1" as="geometry">
            <mxPoint x="110" y="970" as="sourcePoint" />
            <mxPoint x="110" y="1040" as="targetPoint" />
            <Array as="points">
              <mxPoint x="110" y="1010" />
              <mxPoint x="110" y="1030" />
            </Array>
          </mxGeometry>
        </mxCell>
        <mxCell id="nmM_pcnVhzWw3TYfgnPR-53" value="Case 2" style="rhombus;whiteSpace=wrap;html=1;shadow=0;fontFamily=Helvetica;fontSize=12;align=center;strokeWidth=1;spacing=6;spacingTop=-4;" vertex="1" parent="WIyWlLk6GJQsqaUBKTNV-1">
          <mxGeometry x="247.5" y="240" width="62.5" height="50" as="geometry" />
        </mxCell>
      </root>
    </mxGraphModel>
  </diagram>
</mxfile>
